<mxfile host="app.diagrams.net" modified="2023-11-09T12:49:36.525Z" agent="Mozilla/5.0 (Windows NT 10.0; Win64; x64) AppleWebKit/537.36 (KHTML, like Gecko) Chrome/119.0.0.0 Safari/537.36" version="22.1.0" etag="G4MV6-_nv-aeytw-0x8E" type="github">
  <diagram name="Halaman-1" id="w4NtpQAkUFefG6u0S23o">
    <mxGraphModel>
      <root>
        <mxCell id="0" />
        <mxCell id="1" parent="0" />
      </root>
    </mxGraphModel>
  </diagram>
</mxfile>
